<svg xmlns="http://www.w3.org/2000/svg" width="77.937" height="75.699" viewBox="0 0 77.937 75.699">
  <path id="LOGO" d="M52.828.241a8.9,8.9,0,0,0-1.794.733,4.967,4.967,0,0,0-1.162.944,4.231,4.231,0,0,0-.593,1.251,16.927,16.927,0,0,0-.089,3.78l.12,3.016-.838.359-.838.359v1.211c0,.666.073,1.211.163,1.211a4.243,4.243,0,0,0,.838-.282c.532-.222.692-.232.75-.046.041.13.128.945.193,1.811s.239,2.394.387,3.4.443,2.627.657,3.613a31.319,31.319,0,0,0,.941,3.319,15.65,15.65,0,0,0,1.258,2.617,7.7,7.7,0,0,0,1.392,1.615,2.84,2.84,0,0,0,1.761.6,5.554,5.554,0,0,0,1.713-.133A5.222,5.222,0,0,0,59.2,28.529a10.034,10.034,0,0,0,1.78-2.729A19.077,19.077,0,0,0,62.21,22.51a4.246,4.246,0,0,1,.474-1.436.158.158,0,0,1,.148.165,5.129,5.129,0,0,0,.837,1.1,8.68,8.68,0,0,0,1.664,1.415,6.868,6.868,0,0,0,1.857.675,6.158,6.158,0,0,0,2.552-.094,11.694,11.694,0,0,0,2.886-.973,10.752,10.752,0,0,0,2.432-1.74,9.011,9.011,0,0,0,1.645-2.235A16.456,16.456,0,0,0,77.61,17a14.318,14.318,0,0,0,.328-3.8,10.7,10.7,0,0,0-.217-2.962c-.209-.355-.221-.351-.322.093-.058.253-.233,1.295-.39,2.314s-.451,2.464-.654,3.21a13.806,13.806,0,0,1-.745,2.092,6.994,6.994,0,0,1-1.147,1.485,7.611,7.611,0,0,1-1.468,1.1,3.6,3.6,0,0,1-1.357.355,4.045,4.045,0,0,1-1.3-.267,2.918,2.918,0,0,1-1.192-1.138,10.818,10.818,0,0,1-.924-2,14.954,14.954,0,0,1-.486-1.873l-.114-.741.989-.01a4.168,4.168,0,0,0,2.175-.643A6.139,6.139,0,0,0,72.667,12.7a6.964,6.964,0,0,0,.944-1.581,9.763,9.763,0,0,0,.247-2.365,5.011,5.011,0,0,0-.479-2.687,8.844,8.844,0,0,0-.958-1.584,6.354,6.354,0,0,0-1.466-1.112,3.981,3.981,0,0,0-2.564-.547,4.959,4.959,0,0,0-2.8.582A9.87,9.87,0,0,0,63.61,4.663a9.522,9.522,0,0,0-1.339,1.593,12.406,12.406,0,0,0-1.022,2.168,15.9,15.9,0,0,0-.609,2.982,17.058,17.058,0,0,0-.006,3.243,22.543,22.543,0,0,0,.531,2.85l.364,1.335-.552,2.186a21.643,21.643,0,0,1-1.111,3.324A4.576,4.576,0,0,1,58.813,25.8c-.349.229-.579.271-.786.143a2.678,2.678,0,0,1-.6-1.091,24.283,24.283,0,0,1-.614-3.227c-.173-1.308-.354-4.374-.415-7.043L56.29,9.861l1.093-.39,1.093-.39.054-1.321.055-1.321-1.031.395a2.564,2.564,0,0,1-1.155.271,22.681,22.681,0,0,1,.079-3.317c.111-1.756.231-3.318.266-3.471C56.8.092,56.536.034,55.325,0A10.162,10.162,0,0,0,52.828.241Zm-21.4,6.4a25.477,25.477,0,0,0-2.494.543,15.991,15.991,0,0,0-2.657,1.045,12.761,12.761,0,0,0-2.053,1.36A7.109,7.109,0,0,0,22.936,11.2a10.647,10.647,0,0,0-.779,2c-.155.6-.426,2.048-.6,3.229a45.387,45.387,0,0,0-.318,6.78,34.5,34.5,0,0,0,.428,7.118c.234,1.367.662,3.327.951,4.355A35.167,35.167,0,0,0,23.8,38.111a7.922,7.922,0,0,1,.582,1.64,7.027,7.027,0,0,1-1.3-1.159,9.248,9.248,0,0,1-1.939-2.752c-.4-.833-.979-2.251-1.3-3.15s-.75-2.317-.964-3.15-.547-2.417-.74-3.519-.442-3.161-.553-4.576a22.591,22.591,0,0,1,0-4.483c.113-1.051.256-2.152.32-2.446l.115-.536-1.862.09a6.406,6.406,0,0,0-3.234.741,11.178,11.178,0,0,0-2.088,1.28,8.947,8.947,0,0,0-1.331,1.587,12.837,12.837,0,0,0-1.077,2.337A29.563,29.563,0,0,0,7.6,23.69c-.207,1.263-.467,3.713-.58,5.446-.121,1.869-.155,4.921-.083,7.505.07,2.51.04,5.454-.07,6.949A29.341,29.341,0,0,1,6.393,47.3a14.436,14.436,0,0,1-.841,2.256,7.28,7.28,0,0,1-1.618,2.116,10.285,10.285,0,0,1-2.216,1.5,6.818,6.818,0,0,1-1.436.525c-.155,0-.282.078-.282.174a3.658,3.658,0,0,0,1.195.762,6.278,6.278,0,0,0,2.363.678A11.84,11.84,0,0,0,6.672,55a17.341,17.341,0,0,0,3.244-1.006,11.276,11.276,0,0,0,2.339-1.564,5.979,5.979,0,0,0,1.444-1.89,11.8,11.8,0,0,0,.616-2.4,19.3,19.3,0,0,0,0-4.395c-.118-1.612-.547-5.182-.953-7.934s-.841-6.269-.965-7.817a18.291,18.291,0,0,1-.014-4.311,11.726,11.726,0,0,1,.607-2.416,4.5,4.5,0,0,1,.607-1.095c.157-.13.195.21.145,1.311a23.676,23.676,0,0,0,.155,3.274c.122.983.54,3.039.929,4.568s.973,3.447,1.3,4.262.956,2.22,1.4,3.121a24.971,24.971,0,0,0,1.632,2.784,19.524,19.524,0,0,0,2.095,2.345,13.732,13.732,0,0,0,2.24,1.718,10.456,10.456,0,0,0,2.311.8,9.106,9.106,0,0,0,2.816.161,20.874,20.874,0,0,0,2.816-.469,12.217,12.217,0,0,0,1.916-.638c.312-.161.566-.353.565-.427a2.151,2.151,0,0,0-.733-.552,5.021,5.021,0,0,1-1.333-1.291,13.572,13.572,0,0,1-1.109-2.122,26.083,26.083,0,0,1-.971-3.342c-.255-1.151-.566-2.927-.692-3.946s-.226-3.646-.222-5.838.109-4.818.232-5.838.426-2.951.672-4.292a37.78,37.78,0,0,1,1.023-4.17A29.673,29.673,0,0,1,32.24,8.148c.666-1.3.808-1.709.584-1.692C32.661,6.469,32.035,6.551,31.432,6.639ZM70.524,7.1a3.689,3.689,0,0,1,.661,1.134,4.177,4.177,0,0,1,.122,1.478,2.934,2.934,0,0,1-.642,1.507A6.364,6.364,0,0,1,69.3,12.4a6.094,6.094,0,0,1-1.347.628l-.531.128.136-1.554a15.976,15.976,0,0,1,.489-2.7,4.475,4.475,0,0,1,.919-1.714,1.964,1.964,0,0,1,.838-.566A1.471,1.471,0,0,1,70.524,7.1ZM38.859,13.657a10,10,0,0,0-2.061,1,8.968,8.968,0,0,0-1.649,1.468,11.057,11.057,0,0,0-1.217,2.023,15.556,15.556,0,0,0-.86,2.752,13.614,13.614,0,0,0-.215,3.69,14.739,14.739,0,0,0,.591,3.8,19.634,19.634,0,0,0,1.16,2.932,12.718,12.718,0,0,0,1.454,2.145,8.263,8.263,0,0,0,1.777,1.423,3.715,3.715,0,0,0,2.381.54,4.842,4.842,0,0,0,2.64-.612,11.714,11.714,0,0,0,2.373-1.642A7.5,7.5,0,0,0,47.16,30.45a17.5,17.5,0,0,0,1.016-2.583A18.94,18.94,0,0,0,48.5,25.55a17.954,17.954,0,0,0-.113-3.086,20.934,20.934,0,0,0-.712-3.149,13.181,13.181,0,0,0-1.331-2.72,11.346,11.346,0,0,0-1.768-2,6.477,6.477,0,0,0-1.841-1.034,7.523,7.523,0,0,0-1.853-.263A8.365,8.365,0,0,0,38.859,13.657Zm4.5,4.074a4.45,4.45,0,0,1,1.01,1.477,13.8,13.8,0,0,1,.77,2.526,21.909,21.909,0,0,1,.27,3.349,20.368,20.368,0,0,1-.293,3.356,10.777,10.777,0,0,1-.641,2.1,4.493,4.493,0,0,1-.926,1.167,2.043,2.043,0,0,1-1.014.487,1.217,1.217,0,0,1-.812-.479,6.808,6.808,0,0,1-.743-1.458,18.986,18.986,0,0,1-.656-2.507,25.049,25.049,0,0,1-.29-4,23.671,23.671,0,0,1,.208-3.454,8.3,8.3,0,0,1,.554-1.665,3.126,3.126,0,0,1,.76-.973,1.772,1.772,0,0,1,.854-.29A2.015,2.015,0,0,1,43.359,17.73Zm6.63,19.188a4.857,4.857,0,0,1-2.4,1.582,36.056,36.056,0,0,1-3.931,1.137c-1.329.3-2.917.719-3.529.922a9.512,9.512,0,0,0-1.8.818,3.394,3.394,0,0,0-1,1.045,5.667,5.667,0,0,0-.4,1.719,9.293,9.293,0,0,0,.13,2.186,4.607,4.607,0,0,0,.29,1.062,3.067,3.067,0,0,0,.553-.448,5.828,5.828,0,0,1,1.261-.807,8.838,8.838,0,0,1,1.271-.478l.494-.119.1,1.343c.055.739.193,2.677.306,4.308s.327,3.924.475,5.1.443,3,.655,4.064.631,2.806.931,3.873a27.388,27.388,0,0,0,1.19,3.337,15.736,15.736,0,0,0,1.391,2.384c.65.861.7,1,.413,1.086a13.022,13.022,0,0,0-1.28.562,2.743,2.743,0,0,0-1.158.927,5.233,5.233,0,0,0-.208,1.612,4.17,4.17,0,0,0,.183,1.428c.1.162.181.187.183.06s.441-.428.976-.684a15.838,15.838,0,0,1,2.826-.853c1.019-.213,2.5-.6,3.3-.862a7.851,7.851,0,0,0,1.98-.927,2.88,2.88,0,0,0,.75-1.095,2.787,2.787,0,0,0,.082-1.245,10.11,10.11,0,0,0-.407-1.3l-.277-.7-.822.757c-.452.417-.922.725-1.044.684a2.35,2.35,0,0,1-.64-.8,17,17,0,0,1-.964-2.416,33.239,33.239,0,0,1-.916-3.892c-.2-1.211-.473-3.2-.6-4.426-.133-1.284-.229-4.674-.226-8.024,0-4.761.052-5.843.267-6.04a4.538,4.538,0,0,1,1.1-.545,6.394,6.394,0,0,0,1.552-.9,3.923,3.923,0,0,0,.973-1.206,1.7,1.7,0,0,1,.348-.616,23.171,23.171,0,0,1,.09,2.879v2.879l-.834.357-.834.357v1.211a3.823,3.823,0,0,0,.1,1.211,5.34,5.34,0,0,0,.764-.278,4.48,4.48,0,0,1,.8-.278,5.1,5.1,0,0,1,.264,1.622c.07.892.251,2.5.4,3.567s.523,2.972.824,4.226A23.71,23.71,0,0,0,55.114,61.9a15.456,15.456,0,0,0,1.2,2.116,4.578,4.578,0,0,0,1.315,1.158,3.937,3.937,0,0,0,3.331.013,6.4,6.4,0,0,0,1.488-1.245,11.541,11.541,0,0,0,1.4-2.185A21.134,21.134,0,0,0,64.9,58.972a12.3,12.3,0,0,0,.428-3.892,9.444,9.444,0,0,0-.212-2.78c-.176-.3-.236-.316-.306-.093-.048.153-.266,1.267-.484,2.477a36.888,36.888,0,0,1-.94,3.892,12.245,12.245,0,0,1-1.017,2.386,2.181,2.181,0,0,1-.96.815.591.591,0,0,1-.73-.209,6.672,6.672,0,0,1-.528-1.649c-.157-.725-.372-2.068-.477-2.985s-.242-3.711-.3-6.208l-.111-4.54,1.091-.384,1.09-.384.055-1.253c.054-1.231.048-1.251-.37-1.123-.234.072-.707.245-1.051.386a5,5,0,0,1-.721.256,17.925,17.925,0,0,1,.037-2.612c.073-1.436.2-3.014.274-3.5l.141-.893-.779-.117a8.643,8.643,0,0,0-2.055.081,10.34,10.34,0,0,0-2.436.761,4.073,4.073,0,0,0-1.622,1.243,3.014,3.014,0,0,0-.477.96c-.009.155-.132-.2-.275-.789a15.1,15.1,0,0,0-.656-1.992,2.715,2.715,0,0,0-.513-.912A7.127,7.127,0,0,0,49.989,36.919Z" fill="#343434" fill-rule="evenodd"/>
</svg>
