<svg xmlns="http://www.w3.org/2000/svg" width="104.324" height="82.325" viewBox="0 0 104.324 82.325">
  <path id="Logo_Feed" data-name="Logo Feed" d="M71.055.64a5.042,5.042,0,0,1-1.611,1.121,23.881,23.881,0,0,1-3.27,1c-1.186.278-2.537.648-3,.823A4.391,4.391,0,0,0,61.8,4.45a2.664,2.664,0,0,0-.65,1.458,5.43,5.43,0,0,0,.114,1.8l.238.886.476-.447a4.165,4.165,0,0,1,1.259-.716,2.369,2.369,0,0,1,.9-.194,17.538,17.538,0,0,1,.247,2.782c.069,1.489.269,3.807.445,5.152s.539,3.361.807,4.482.684,2.566.926,3.211a12.946,12.946,0,0,0,1.145,2.224c.538.8.643,1.089.443,1.216a1.155,1.155,0,0,1-.491.17,1.993,1.993,0,0,0-.748.413,2.1,2.1,0,0,0-.654,1.019,3.439,3.439,0,0,0,0,1.234c.128.579.164.6.492.3a11.857,11.857,0,0,1,2.679-.917c1.279-.328,2.6-.7,2.936-.827a3.881,3.881,0,0,0,1.069-.661,1.5,1.5,0,0,0,.459-1.2,4.487,4.487,0,0,0-.211-1.32l-.21-.554-.564.541a2.035,2.035,0,0,1-.8.541c-.132,0-.421-.357-.644-.794a15.671,15.671,0,0,1-.822-2.292,33.174,33.174,0,0,1-.706-3.841c-.159-1.289-.35-3.476-.423-4.861s-.067-3.631.015-4.991L69.674,5.8l1.157-.556a3.521,3.521,0,0,0,1.448-1.1c.275-.516.3-.439.393,1.371a18.26,18.26,0,0,1,.037,2.155c-.037.13-.289.292-.56.36-.432.108-.495.24-.495,1.037a2.442,2.442,0,0,0,.089.913,4.16,4.16,0,0,0,.611-.2q.523-.2.522.008c0,.114.1,1.1.215,2.185s.434,2.963.7,4.165a20.317,20.317,0,0,0,1.112,3.5,6.726,6.726,0,0,0,1.25,1.837,3.583,3.583,0,0,0,1.118.649,3.489,3.489,0,0,0,1.218-.011,3.236,3.236,0,0,0,1.5-.91,8.289,8.289,0,0,0,1.306-1.873,14.924,14.924,0,0,0,.844-2.313,12.963,12.963,0,0,0,.3-2.75,8.63,8.63,0,0,0-.18-1.944c-.137-.338-.189-.268-.305.407-.078.448-.359,1.712-.624,2.809a15.307,15.307,0,0,1-.957,2.852c-.355.644-.6.859-.969.859-.405,0-.54-.152-.737-.833a24.117,24.117,0,0,1-.468-2.911c-.124-1.143-.226-3.389-.226-4.991V7.592l.815-.269c.788-.26.815-.3.815-1.177,0-.814-.042-.895-.407-.782l-.847.26-.44.134.137-2.711L78.175.337l-1.4.117a8.081,8.081,0,0,0-2.367.572,3.575,3.575,0,0,0-1.336,1.061l-.369.606-.232-.862A11.148,11.148,0,0,0,72.016.479c-.123-.27-.278-.485-.344-.479A2.742,2.742,0,0,0,71.055.64ZM45.327,12.231a7.108,7.108,0,0,0-1.357.485,3.715,3.715,0,0,0-1.012.844c-.381.485-.425.812-.425,3.18v2.639l-.611.231c-.551.208-.611.318-.611,1.127,0,.756.056.88.356.8.2-.056.491-.135.656-.177.236-.06.331.269.448,1.554.082.9.3,2.5.49,3.565a28.035,28.035,0,0,0,.805,3.314,13.007,13.007,0,0,0,1.1,2.375,4.006,4.006,0,0,0,1.323,1.321,3.516,3.516,0,0,0,1.223.324,2.908,2.908,0,0,0,1.11-.3,5.162,5.162,0,0,0,1.187-1,9.114,9.114,0,0,0,1.124-1.793,13.462,13.462,0,0,0,.758-2.16,4.336,4.336,0,0,1,.327-1.07,7.881,7.881,0,0,1,.912.906,5.48,5.48,0,0,0,1.736,1.25,3.948,3.948,0,0,0,2.071.211,9.036,9.036,0,0,0,2.43-.747,7.624,7.624,0,0,0,2.174-1.632,6.533,6.533,0,0,0,1.373-2.388,9.574,9.574,0,0,0,.473-3.2,9.753,9.753,0,0,0-.161-2.241c-.132-.3-.275.164-.562,1.834-.212,1.233-.487,2.551-.611,2.93a5.272,5.272,0,0,1-.95,1.49A6.023,6.023,0,0,1,59.817,27a2.972,2.972,0,0,1-1.141.292,2.11,2.11,0,0,1-1.032-.32,4.454,4.454,0,0,1-.966-1.325,7.369,7.369,0,0,1-.633-1.909c-.114-.831-.091-.895.283-.8a3.319,3.319,0,0,0,1.453-.343,5.475,5.475,0,0,0,1.647-1.135,4.632,4.632,0,0,0,.834-1.552,6.791,6.791,0,0,0,.145-1.929,4.514,4.514,0,0,0-.683-2.02,4.009,4.009,0,0,0-1.371-1.36,5.585,5.585,0,0,0-1.629-.5,4.412,4.412,0,0,0-2.005.34,5.091,5.091,0,0,0-2,1.358,8.069,8.069,0,0,0-1.227,1.775,12.023,12.023,0,0,0-.618,2.252,11.515,11.515,0,0,0-.112,2.679,14.618,14.618,0,0,0,.418,2.233c.261.868.249,1.109-.13,2.618a15.345,15.345,0,0,1-.785,2.389,3.912,3.912,0,0,1-.705,1.007.5.5,0,0,1-.677.068,2.5,2.5,0,0,1-.588-1.2,32.812,32.812,0,0,1-.457-3.749c-.115-1.519-.209-3.617-.21-4.663v-1.9l.815-.32c.781-.307.815-.358.815-1.228,0-.747-.058-.886-.324-.783-.178.068-.556.183-.839.254l-.514.129.136-2.116c.075-1.164.185-2.368.244-2.677.105-.551.091-.56-.876-.54A10.257,10.257,0,0,0,45.327,12.231ZM27.836,17.289a11.021,11.021,0,0,0-2.24.887,8.633,8.633,0,0,0-1.532,1.2,5.542,5.542,0,0,0-.949,1.394,11.712,11.712,0,0,0-.518,1.935c-.121.671-.309,2.315-.418,3.652a33.051,33.051,0,0,0-.008,4.918c.1,1.368.336,3.207.515,4.088a29.942,29.942,0,0,0,.9,3.231c.313.9.642,1.813.729,2.037.1.265-.141.124-.7-.407a9.226,9.226,0,0,1-1.343-1.63,21.1,21.1,0,0,1-1.191-2.954c-.39-1.177-.85-2.827-1.02-3.667s-.412-2.582-.537-3.871a17.672,17.672,0,0,1-.023-3.969c.153-1.219.144-1.667-.037-1.788A2.544,2.544,0,0,0,18.3,22.3a12.647,12.647,0,0,0-1.855.42,6.214,6.214,0,0,0-1.773,1.017,6.874,6.874,0,0,0-1.447,1.979,14.755,14.755,0,0,0-.948,3.1,74.331,74.331,0,0,0-.5,9.27c-.095,4.309-.261,7.818-.4,8.345a10.05,10.05,0,0,1-.771,1.9,6.246,6.246,0,0,1-1.319,1.609,7.836,7.836,0,0,1-1.734.98l-.953.362.7.425a5.147,5.147,0,0,0,1.6.56,9.305,9.305,0,0,0,2.349-.115,12.642,12.642,0,0,0,2.475-.71,8.414,8.414,0,0,0,1.759-1.1,5.245,5.245,0,0,0,1.086-1.39,7.948,7.948,0,0,0,.5-1.985,21.387,21.387,0,0,0-.026-3.377c-.1-1.177-.425-3.743-.727-5.7a39.905,39.905,0,0,1-.56-6.621c-.008-2.723.037-3.142.417-3.848l.426-.792.128,2.218a24.859,24.859,0,0,0,.544,3.848c.229.9.611,2.226.849,2.954a26.8,26.8,0,0,0,1.246,2.954A19.9,19.9,0,0,0,21.112,41.4a11.078,11.078,0,0,0,2.124,1.98,7.02,7.02,0,0,0,1.922.937,14.134,14.134,0,0,0,2.482.024,12.827,12.827,0,0,0,2.726-.454,2.459,2.459,0,0,0,.959-.476,2.022,2.022,0,0,0-.655-.541,4.407,4.407,0,0,1-1.222-1.532,15.623,15.623,0,0,1-.967-2.648,32.59,32.59,0,0,1-.629-3.552,45.349,45.349,0,0,1-.13-5.6,35.039,35.039,0,0,1,.546-5.782,32.642,32.642,0,0,1,.958-3.667,17.7,17.7,0,0,1,1.016-2.325l.5-.866-.772.012A11.391,11.391,0,0,0,27.836,17.289Zm30.38.271a2.958,2.958,0,0,1,.4,1.273,2.933,2.933,0,0,1-.4,1.265,3.536,3.536,0,0,1-1.213,1.07,4.169,4.169,0,0,1-1.054.416c-.174,0-.2-.372-.1-1.351a9.188,9.188,0,0,1,.407-1.994,3.706,3.706,0,0,1,.617-.992,1.167,1.167,0,0,1,.642-.348C57.68,16.9,57.994,17.2,58.216,17.56ZM34.657,22.121a6.734,6.734,0,0,0-1.77,1.112,6.805,6.805,0,0,0-1.417,1.872,11.887,11.887,0,0,0-.724,2.142,13.271,13.271,0,0,0-.227,2.259,13.532,13.532,0,0,0,.394,2.721,15.463,15.463,0,0,0,.916,2.572,8.331,8.331,0,0,0,1.265,1.774A5.562,5.562,0,0,0,34.512,37.6a4.456,4.456,0,0,0,1.447.281,5.4,5.4,0,0,0,1.817-.49,8.948,8.948,0,0,0,1.851-1.214,7.367,7.367,0,0,0,1.481-2.2,7.206,7.206,0,0,0,.771-3.419,15.39,15.39,0,0,0-.141-3.084,12.841,12.841,0,0,0-.817-2.364,8.314,8.314,0,0,0-1.43-2.046,5.044,5.044,0,0,0-1.624-1.048A6.139,6.139,0,0,0,36.3,21.8,6.317,6.317,0,0,0,34.657,22.121Zm3.782,3.107a4.51,4.51,0,0,1,.815,1.375,17.1,17.1,0,0,1,.37,3.148,10.061,10.061,0,0,1-.22,3.482,6.065,6.065,0,0,1-.751,1.662,1.26,1.26,0,0,1-1,.542c-.488,0-.632-.142-.99-.973a12.934,12.934,0,0,1-.661-2.367,20.357,20.357,0,0,1-.151-3.56A7.657,7.657,0,0,1,36.3,25.7a2.057,2.057,0,0,1,.8-.853,3.156,3.156,0,0,1,.62-.193A2.033,2.033,0,0,1,38.44,25.228Zm51.526,1.043a7.538,7.538,0,0,0-1.8.6,2.282,2.282,0,0,0-1.182,1.193c-.261.619-.3,1.3-.192,3.85l.125,3.1-.738-.5a2.97,2.97,0,0,0-1.347-.5,6.1,6.1,0,0,0-1.418.242,5.954,5.954,0,0,0-1.778,1.114,6.123,6.123,0,0,0-1.406,1.886,13.023,13.023,0,0,0-.677,2.563,7.709,7.709,0,0,0,.125,3.423,5.892,5.892,0,0,1-.068,3.691,11.622,11.622,0,0,1-.841,2.475,2.277,2.277,0,0,1-.693.769.472.472,0,0,1-.495-.141,4.665,4.665,0,0,1-.454-1.261,32.894,32.894,0,0,1-.226-5.241c.019-4.161.011-4.239-.46-4.788-.423-.492-.622-.557-1.705-.557-1.067,0-1.3.074-1.824.573A9.16,9.16,0,0,0,71.587,40.9a24.448,24.448,0,0,0-1.228,3.5c-.274,1.064-.656,2.99-.847,4.278s-.4,2.48-.455,2.648-.192-.03-.316-.509a26.187,26.187,0,0,1-.216-3.871,30.509,30.509,0,0,1,.237-4.262,4.084,4.084,0,0,0,.141-1.308,3.7,3.7,0,0,0-1.135-.078,8.347,8.347,0,0,0-2.03.355,3.7,3.7,0,0,0-1.54.977c-.542.645-.543.652-.423,3.194a35.809,35.809,0,0,0,.355,3.77,9.1,9.1,0,0,1,.11,2.288,11.111,11.111,0,0,1-.53,2.15,5.394,5.394,0,0,1-1.068,1.711,6.4,6.4,0,0,1-1.107.855,2.3,2.3,0,0,1-.876.228,2.709,2.709,0,0,1-1-.294,2.949,2.949,0,0,1-1.085-1.477,11.128,11.128,0,0,1-.639-1.846c-.116-.635-.094-.662.536-.667a4.471,4.471,0,0,0,1.48-.379,4.61,4.61,0,0,0,1.367-1.02,4.478,4.478,0,0,0,.754-1.4,6.264,6.264,0,0,0,.21-1.369,6.326,6.326,0,0,0-.214-1.381,4.685,4.685,0,0,0-.861-1.507A4.467,4.467,0,0,0,59.9,44.472,5.183,5.183,0,0,0,58.26,44.2a4.624,4.624,0,0,0-2.06.536,4.854,4.854,0,0,0-1.74,1.452,9.677,9.677,0,0,0-1.046,1.959,8.569,8.569,0,0,0-.387,2.979A16.185,16.185,0,0,0,53.3,54.2a4.613,4.613,0,0,1-.075,2.75,13.058,13.058,0,0,1-.748,2.379,2.258,2.258,0,0,1-.692.889A.659.659,0,0,1,51.2,60.1a4.441,4.441,0,0,1-.532-1.694,31.438,31.438,0,0,1-.124-5.337c.067-2.134.182-4.192.257-4.572l.135-.692-1.313.106a8.426,8.426,0,0,0-2.262.526,3.307,3.307,0,0,0-1.378,1.1c-.4.629-.421.872-.318,3.528a37.387,37.387,0,0,0,.409,4.38,21.174,21.174,0,0,0,.627,2.445,8.806,8.806,0,0,0,.866,1.7,3.982,3.982,0,0,0,1.145,1.092,2.884,2.884,0,0,0,1.6.218,2.358,2.358,0,0,0,1.688-.767,7.477,7.477,0,0,0,1.232-1.811A11.754,11.754,0,0,0,54,58.051c.122-.616.243-1.152.268-1.19a3.9,3.9,0,0,1,.811.779A6.771,6.771,0,0,0,56.662,58.9a3.26,3.26,0,0,0,2.1.314,7.032,7.032,0,0,0,2.372-.635,8.651,8.651,0,0,0,1.857-1.28,7.281,7.281,0,0,0,1.255-1.783,8.694,8.694,0,0,0,.611-1.8c.07-.42.2-.764.28-.764s.269.28.411.623a6.587,6.587,0,0,0,1.137,1.528c.779.8.982.9,1.781.9a2.178,2.178,0,0,0,1.325-.356c.346-.291.5-.878.834-3.209.225-1.569.6-3.883.842-5.144a9.738,9.738,0,0,1,.584-2.292,2.96,2.96,0,0,1,.271,1.275,17.273,17.273,0,0,0,.636,2.912,7.217,7.217,0,0,0,1.246,2.489,3.222,3.222,0,0,0,1.487,1.056,2.8,2.8,0,0,0,1.474.006,3.648,3.648,0,0,0,1.357-.861,7.958,7.958,0,0,0,1.182-1.847,12.44,12.44,0,0,0,.762-2.35l.221-1.167,1.031,1.059a4.307,4.307,0,0,0,1.869,1.281,4.145,4.145,0,0,0,1.527.091,5.761,5.761,0,0,0,1.254-.415,4.2,4.2,0,0,0,1.154-1.1,6.466,6.466,0,0,0,.849-1.826,2.751,2.751,0,0,1,.373-1.006,3.288,3.288,0,0,1,.624.835,3.813,3.813,0,0,0,1.3,1.235,2.162,2.162,0,0,0,1.481.275,3.527,3.527,0,0,0,1.373-.729,6.983,6.983,0,0,0,1.268-1.773c.323-.645.6-1.2.613-1.234a3.1,3.1,0,0,1,.784.453,4.754,4.754,0,0,0,1.469.648,3.929,3.929,0,0,0,1.558-.119,14.372,14.372,0,0,0,1.864-.761,8.5,8.5,0,0,0,1.7-1.148,6.687,6.687,0,0,0,1.109-1.456,4.236,4.236,0,0,0,.437-1.938,3.461,3.461,0,0,0-.548-2.073,3.29,3.29,0,0,0-1.626-1.469,13.472,13.472,0,0,0-2.581-.835,7.167,7.167,0,0,1-1.782-.539,1.193,1.193,0,0,1-.27-.8,1.076,1.076,0,0,1,.453-.892,2.833,2.833,0,0,1,1.344-.317,4.41,4.41,0,0,1,1.584.329c.38.181.692.41.692.509s.128.181.284.181a.5.5,0,0,0,.407-.322,4.927,4.927,0,0,0,.124-1.229,4.847,4.847,0,0,0-.277-1.562,3.53,3.53,0,0,0-.735-1.063,2.12,2.12,0,0,0-1.606-.4,5.382,5.382,0,0,0-2.3.54,8.134,8.134,0,0,0-2.016,1.417,7.612,7.612,0,0,0-1.274,1.8,5.382,5.382,0,0,0-.409,2.037,4.594,4.594,0,0,0,.319,1.732,4.992,4.992,0,0,0,.85,1.107,1.067,1.067,0,0,1,.409,1.222c-.067.4-.248,1.368-.4,2.153a21.253,21.253,0,0,1-.525,2.139,6.564,6.564,0,0,1-.53,1.154,1.619,1.619,0,0,1-.6.564.536.536,0,0,1-.583-.237,5.709,5.709,0,0,1-.506-1.582,49.726,49.726,0,0,1-.377-5.093c-.074-2.129-.077-5.475-.007-7.436.09-2.509.061-3.61-.1-3.715a1,1,0,0,0-.531-.129C91.036,26.1,90.478,26.185,89.966,26.271ZM86.237,36.815a2.593,2.593,0,0,1,.535.761,8.666,8.666,0,0,1,.538,1.691,20.505,20.505,0,0,1,.228,3.22,17.273,17.273,0,0,1-.231,3.059,2.093,2.093,0,0,1-.739,1.251c-.484.317-.527.31-.887-.135a5.779,5.779,0,0,1-.708-1.518,17.257,17.257,0,0,1-.436-3.263,14.663,14.663,0,0,1,.132-3.281,4,4,0,0,1,.646-1.5,1.52,1.52,0,0,1,.552-.434A.928.928,0,0,1,86.237,36.815Zm11.734,1.577a11.048,11.048,0,0,1,2.084.791,1.693,1.693,0,0,1,.638.849.96.96,0,0,1-.251.942,3.441,3.441,0,0,1-1.036.7,4.727,4.727,0,0,1-1.533.278,2.792,2.792,0,0,1-1.323-.312,1.646,1.646,0,0,1-.546-.968c-.056-.361-.136-1.187-.178-1.837-.067-1.016-.033-1.161.246-1.043C96.251,37.873,97.105,38.14,97.971,38.392ZM47.818,42.678a3.823,3.823,0,0,0-1.4.794,2.477,2.477,0,0,0-.574,1.519c-.085.883-.031,1.076.427,1.534a1.7,1.7,0,0,0,1.108.525A7.484,7.484,0,0,0,49,46.74a3.271,3.271,0,0,0,1.586-.958,1.7,1.7,0,0,0,.449-1.664,1.834,1.834,0,0,0-.554-1.384,1.947,1.947,0,0,0-1.1-.355A7.21,7.21,0,0,0,47.818,42.678ZM32.373,46.929a15.422,15.422,0,0,1-1.5,1.1,24.887,24.887,0,0,1-3.006,1.233c-1.288.456-3.625,1.2-5.193,1.659A38.508,38.508,0,0,0,18.3,52.47a11.121,11.121,0,0,0-2.012,1.163,4.342,4.342,0,0,0-1.241,2.907,2.661,2.661,0,0,0,.1.935c.057.057.464-.24.9-.66a7.569,7.569,0,0,1,2.392-1.368c.875-.333,2.873-.944,4.441-1.357s3.9-1.04,5.176-1.392a25.48,25.48,0,0,0,3.762-1.361,5.074,5.074,0,0,0,1.9-1.413,2.958,2.958,0,0,0,.463-1.371,4.925,4.925,0,0,0-.328-1.5c-.18-.45-.4-.819-.49-.819A4.318,4.318,0,0,0,32.373,46.929Zm27.659.453a2.225,2.225,0,0,1,.422,1.308A2.054,2.054,0,0,1,59.92,50.1a4.487,4.487,0,0,1-1.11.932,2.75,2.75,0,0,1-.79.3c-.118,0-.214-.4-.214-.884A7.783,7.783,0,0,1,58.1,48.59a4.459,4.459,0,0,1,.642-1.357,1.139,1.139,0,0,1,.61-.388C59.493,46.846,59.8,47.087,60.032,47.382ZM40.209,51.4a7.868,7.868,0,0,0-1.334,1.986,19.946,19.946,0,0,0-1.018,2.9,24.365,24.365,0,0,0-.541,2.9c-.082.8-.213,1.252-.339,1.175a6.672,6.672,0,0,1-.081-2.491,22.882,22.882,0,0,1,.414-3.458l.289-1.095-1.453.1a7.128,7.128,0,0,0-2.4.549,2.43,2.43,0,0,0-1.306,1.2c-.322.678-.332.987-.112,3.337a33.783,33.783,0,0,0,.63,4.105,16.2,16.2,0,0,0,.995,2.72,8.8,8.8,0,0,0,1.383,1.957,1.9,1.9,0,0,0,1.7.75,3.213,3.213,0,0,0,1.215-.189c.236-.149.3-.892.305-3.817a18.783,18.783,0,0,1,.4-5.058,15.449,15.449,0,0,1,.869-2.394c.267-.532.616-.968.774-.968a1.082,1.082,0,0,1,.608.32,1.813,1.813,0,0,1,.32,1.107,4.467,4.467,0,0,1-.192,1.292c-.148.39-.121.532.118.624a2.825,2.825,0,0,0,.819.119,1.9,1.9,0,0,0,1.084-.576,3.709,3.709,0,0,0,.8-1.375,7.932,7.932,0,0,0,.223-1.748,9.19,9.19,0,0,0-.393-2.216,5.7,5.7,0,0,0-.954-1.852,1.589,1.589,0,0,0-1.322-.585A1.9,1.9,0,0,0,40.209,51.4ZM24.555,54.81a7.153,7.153,0,0,0-1.362.488,2.969,2.969,0,0,0-.91.76c-.252.36-.315,1.025-.3,3.21.008,1.516.079,3.467.158,4.335l.144,1.58L21.2,66.251a14.3,14.3,0,0,0-1.67,1.985,12.116,12.116,0,0,0-1.035,2.317,5.549,5.549,0,0,0-.335,2.5,7.262,7.262,0,0,0,.555,2.015A3.189,3.189,0,0,0,20,76.48a5.906,5.906,0,0,0,1.7.633,5.591,5.591,0,0,0,1.59,0,3.84,3.84,0,0,0,1.513-.841A5.723,5.723,0,0,0,26,74.6a13.645,13.645,0,0,0,.671-2.29,30.593,30.593,0,0,0,.264-4.219l.008-2.895,1.23-.62a10.621,10.621,0,0,1,2.32-.822,3.33,3.33,0,0,1,1.307-.069c.144.089.162,0,.055-.256a10.264,10.264,0,0,1-.36-1.409,7.025,7.025,0,0,1-.079-1.888c.117-.862.114-.868-.439-.736a5.344,5.344,0,0,0-.964.339,1.686,1.686,0,0,0-.546.419,2.883,2.883,0,0,0-.026,1.161l.112.948-.89.13c-.49.072-1.111.192-1.382.267l-.491.137.127-4.107.127-4.107-.858.02A9.591,9.591,0,0,0,24.555,54.81ZM4.8,60.723a6.876,6.876,0,0,0-1.339.471,6.375,6.375,0,0,0-1.34,1.148,8.361,8.361,0,0,0-1.195,1.8A5.55,5.55,0,0,0,.5,66.2,9.122,9.122,0,0,0,.841,68.47,8.771,8.771,0,0,0,2,70.7l.811,1.079-.507.622a17.316,17.316,0,0,0-1.119,1.642A11.067,11.067,0,0,0,.252,76.16a6.539,6.539,0,0,0-.238,2.15A6.868,6.868,0,0,0,.57,80.332a3.935,3.935,0,0,0,1.259,1.493,2.712,2.712,0,0,0,1.843.5A5.91,5.91,0,0,0,6.009,81.7a10.634,10.634,0,0,0,2.3-1.551,12.4,12.4,0,0,0,1.642-1.926l.626-.976,1.014.386a5.949,5.949,0,0,0,1.632.385,3.1,3.1,0,0,0,1.192-.3,2.492,2.492,0,0,0,.906-1,5.531,5.531,0,0,0,.333-2.145V73.133l-.793.413a6.127,6.127,0,0,1-1.527.532c-.437.071-.734.037-.734-.086a7.289,7.289,0,0,1,.5-1.3,6.991,6.991,0,0,0,.541-1.6A9.489,9.489,0,0,0,13.648,70a2.412,2.412,0,0,0-.822-1.375,3.017,3.017,0,0,0-1.074-.791q-.283,0-.615,1.579a16.48,16.48,0,0,1-.755,2.554l-.424.975-.581-.3A13.967,13.967,0,0,1,7.744,71.5a3.972,3.972,0,0,1-1.052-1.046,4.57,4.57,0,0,1,.793-1.166,11.736,11.736,0,0,0,1.226-1.819,6.819,6.819,0,0,0,.556-1.763,6.405,6.405,0,0,0-.131-1.958,4.641,4.641,0,0,0-.87-1.762,4.918,4.918,0,0,0-1.145-.968,5.094,5.094,0,0,0-1.039-.371A3.73,3.73,0,0,0,4.8,60.723Zm1.8,2.96a1.923,1.923,0,0,1,.5,1.59,4.373,4.373,0,0,1-.513,2.059,9.965,9.965,0,0,1-.921,1.493c-.389.464-.426.47-.8.135a3.938,3.938,0,0,1-.708-1.026,4.863,4.863,0,0,1-.32-1.72,5.462,5.462,0,0,1,.284-1.725,2.717,2.717,0,0,1,.758-1.012,1.852,1.852,0,0,1,.846-.332A1.628,1.628,0,0,1,6.6,63.683Zm16.052,4.3c.057.2.213,1.256.346,2.356a20.737,20.737,0,0,1,.137,3.31,5.1,5.1,0,0,1-.439,1.821c-.264.4-.5.509-1.153.509-.789,0-.837-.039-1.317-1.069a5.526,5.526,0,0,1-.01-4.561,9.122,9.122,0,0,1,1.243-1.885,3.791,3.791,0,0,1,.923-.837C22.474,67.625,22.6,67.786,22.652,67.982ZM6.135,74.654A11.257,11.257,0,0,1,7.7,76.022a3.467,3.467,0,0,1-.648.9A5.327,5.327,0,0,1,5.5,78.067c-.739.327-.978.352-1.468.149a1.462,1.462,0,0,1-.821-.96A2.222,2.222,0,0,1,3.229,75.7a11.7,11.7,0,0,1,.646-1.617c.217-.427.467-.748.554-.713S5.283,73.982,6.135,74.654Z" fill="#343434" fill-rule="evenodd"/>
</svg>
