<svg xmlns="http://www.w3.org/2000/svg" width="22.949" height="24.861" viewBox="0 0 22.949 24.861">
  <g id="Icon_ionic-ios-calendar" data-name="Icon ionic-ios-calendar" transform="translate(-4.5 28.236) rotate(-90)">
    <path id="Caminho_80" data-name="Caminho 80" d="M25.846,6.75h-2.39V8.184a.48.48,0,0,1-.478.478h-.956a.48.48,0,0,1-.478-.478V6.75H10.068V8.184a.48.48,0,0,1-.478.478H8.634a.48.48,0,0,1-.478-.478V6.75H5.765a2.4,2.4,0,0,0-2.39,2.39V25.4a2.4,2.4,0,0,0,2.39,2.39h20.08a2.4,2.4,0,0,0,2.39-2.39V9.14A2.4,2.4,0,0,0,25.846,6.75Zm-.717,19.018c0,.657.657.106,0,.106H6.483c-.657,0,0,.657,0,0h0c0-.263-.263,0,0,0H25.128c.263,0,0-.369,0-.106Z" transform="translate(0 -0.338)" fill="#464646"/>
    <path id="Caminho_81" data-name="Caminho 81" d="M10.912,4.978a.48.48,0,0,0-.478-.478H9.478A.48.48,0,0,0,9,4.978V6.412h1.912Z" transform="translate(-0.844)" fill="#464646"/>
    <path id="Caminho_82" data-name="Caminho 82" d="M26.662,4.978a.48.48,0,0,0-.478-.478h-.956a.48.48,0,0,0-.478.478V6.412h1.912Z" transform="translate(-3.207)" fill="#464646"/>
  </g>
</svg>
