<svg xmlns="http://www.w3.org/2000/svg" viewBox="0 0 17.685 17.159">
  <g data-name="Icon ionic-ios-heart">
    <path data-name="Caminho 91" d="m17.547 4.188-2.633 7.114-5.974 4.965-6.152-5.516-2.2-3.429v-3.43l2.2-2.633S5.544-.272 8.94 2.545C10.328 3.697 6.912.709 13.26.803c1.889.216 4.287 3.385 4.287 3.385Z" fill="#ff6641"/>
    <path data-name="Icon ionic-ios-heart" d="M12.693.5h-.04a4.564 4.564 0 0 0-3.81 2.086A4.564 4.564 0 0 0 5.033.5h-.04A4.535 4.535 0 0 0 .5 5.032a9.763 9.763 0 0 0 1.917 5.322 33.6 33.6 0 0 0 6.425 6.189 33.6 33.6 0 0 0 6.425-6.189 9.763 9.763 0 0 0 1.918-5.322A4.535 4.535 0 0 0 12.693.5Z" fill="none" stroke="#4e4e4e"/>
  </g>
</svg>
