<svg xmlns="http://www.w3.org/2000/svg" width="17.685" height="17.159" viewBox="0 0 17.685 17.159">
  <g id="Icon_ionic-ios-heart" data-name="Icon ionic-ios-heart" transform="translate(0.5 0.5)">
    <path id="Caminho_91" data-name="Caminho 91" d="M2.9,7.423,2.448,7.7l-.464.155-.446-.2L1.18,7.436l-.124-.145a1.071,1.071,0,0,0,.928.185A1.536,1.536,0,0,1,2.9,7.423Z" transform="translate(6.567 7.912)" fill="#ff6641"/>
    <path id="Icon_ionic-ios-heart-2" data-name="Icon ionic-ios-heart" d="M15.568,3.938h-.04a4.564,4.564,0,0,0-3.81,2.086,4.564,4.564,0,0,0-3.81-2.086h-.04A4.535,4.535,0,0,0,3.375,8.47a9.763,9.763,0,0,0,1.917,5.322,33.6,33.6,0,0,0,6.425,6.189,33.6,33.6,0,0,0,6.425-6.189A9.763,9.763,0,0,0,20.06,8.47,4.535,4.535,0,0,0,15.568,3.938Z" transform="translate(-3.375 -3.938)" fill="none" stroke="#4e4e4e" stroke-width="1"/>
  </g>
</svg>
