<svg xmlns="http://www.w3.org/2000/svg" width="16.696" height="16.696" viewBox="0 0 16.696 16.696">
  <path id="chatbubble-outline" d="M49.489,60.527a.856.856,0,0,0-.149-.561,1.692,1.692,0,0,0-.1-.143A7.539,7.539,0,0,1,48,55.672a7.865,7.865,0,0,1,15.529-1.565,7.509,7.509,0,0,1,.167,1.571,7.694,7.694,0,0,1-7.719,7.732,9.24,9.24,0,0,1-2.131-.316c-.508-.142-1.016-.331-1.147-.381a1.173,1.173,0,0,0-.42-.078,1.159,1.159,0,0,0-.456.092l-2.559.924a.6.6,0,0,1-.176.046.362.362,0,0,1-.361-.367.6.6,0,0,1,.023-.124Z" transform="translate(-47.499 -47.5)" fill="none" stroke="#54544f" stroke-linecap="round" stroke-width="1"/>
</svg>
